# xmcd
#
# Track frame offsets: 
#        150
#        18900
#        35463
#        55211
#        73272
#        90097
#        103546
#        122432
#        140607
#        159132
#
# Disc length: 2387 seconds
#
# Revision: 5
# Processed by: cddbd v1.5.2PL0 Copyright (c) Steve Scherf et al.
# Submitted via: ExactAudioCopy v0.99pb5
#
DISCID=7409510a
DTITLE=Robert Cray Band - Strong Persuader
DYEAR=1988
DGENRE=Blues
TTITLE0=Smoking Gun
TTITLE1=I Guess I Showed Her
TTITLE2=Right Next Door (Because Of Me)
TTITLE3=Nothin' But A Woman
TTITLE4=Still Around
TTITLE5=More Than I Can Stand
TTITLE6=Foul Play
TTITLE7=I Wonder
TTITLE8=Fantasized
TTITLE9=New Blood
EXTD=YEAR: 1988
EXTT0=
EXTT1=
EXTT2={Because Of Me}\\n
EXTT3=
EXTT4=
EXTT5=
EXTT6=
EXTT7=
EXTT8=
EXTT9=
PLAYORDER=
